<?xml version="1.0" standalone="no"?>
<!DOCTYPE svg PUBLIC "-//W3C//DTD SVG 20010904//EN"
 "http://www.w3.org/TR/2001/REC-SVG-20010904/DTD/svg10.dtd">
<svg version="1.0" xmlns="http://www.w3.org/2000/svg"
 width="512.000000pt" height="512.000000pt" viewBox="0 0 512.000000 512.000000"
 preserveAspectRatio="xMidYMid meet">
<metadata>
Created by potrace 1.14, written by Peter Selinger 2001-2017
</metadata>
<g transform="translate(0.000000,512.000000) scale(0.100000,-0.100000)"
fill="#000000" stroke="none">
<path d="M3528 4404 c-2 -1 -30 -5 -63 -8 -291 -29 -576 -162 -781 -364 -69
-67 -103 -108 -187 -223 -93 -127 -222 -448 -252 -631 -11 -65 -16 -96 -21
-138 -3 -25 -11 -79 -19 -120 -8 -41 -16 -86 -18 -100 -10 -55 -61 -189 -100
-265 -52 -97 -142 -192 -224 -233 -72 -36 -341 -93 -463 -97 -204 -8 -354 50
-494 191 -75 75 -77 77 -117 139 -31 47 -80 167 -86 210 -2 16 -8 45 -13 64
-10 36 -7 212 4 271 77 405 352 631 761 625 61 -1 132 -5 158 -10 l49 -8 -411
-408 c-432 -430 -436 -435 -424 -511 12 -82 96 -187 211 -265 32 -21 59 -40
62 -43 8 -8 46 -29 138 -76 l84 -43 21 23 c12 13 69 74 127 136 58 62 116 124
129 139 74 80 221 240 256 276 22 23 79 85 126 136 48 52 90 97 94 101 3 3 8
37 11 75 12 190 92 401 219 578 32 44 60 82 64 85 3 3 33 33 65 67 50 52 57
64 47 77 -7 9 -16 15 -19 14 -4 -1 -52 21 -107 48 -180 90 -422 182 -550 210
-5 1 -28 6 -50 12 -22 6 -58 13 -80 17 -23 3 -52 8 -65 10 -105 22 -421 22
-482 0 -7 -2 -24 -6 -38 -9 -42 -7 -112 -26 -167 -46 -75 -28 -224 -101 -243
-120 -3 -3 -27 -21 -55 -40 -86 -60 -199 -170 -273 -266 -20 -27 -40 -50 -44
-52 -5 -2 -8 -8 -8 -12 0 -5 -13 -29 -29 -52 -38 -56 -115 -211 -131 -263 -7
-22 -16 -44 -20 -50 -7 -9 -34 -113 -33 -125 0 -3 -3 -14 -7 -26 -5 -11 -11
-45 -15 -75 -4 -30 -9 -58 -12 -62 -9 -15 -11 -282 -2 -339 4 -29 10 -71 13
-94 25 -198 150 -478 290 -649 23 -27 48 -58 56 -68 29 -36 174 -158 241 -202
195 -128 413 -206 674 -241 62 -9 303 -9 370 -2 69 8 153 27 198 44 20 7 37
11 37 8 0 -3 12 2 28 10 15 8 54 26 87 41 176 77 378 249 521 446 79 107 230
374 226 399 -1 3 5 14 12 25 7 11 23 49 36 85 21 57 24 86 26 240 2 96 5 191
7 210 7 52 37 160 55 200 8 19 16 37 17 40 12 35 32 71 65 119 159 235 424
353 711 317 79 -9 84 -11 177 -42 266 -87 430 -281 473 -554 17 -113 3 -270
-35 -380 -21 -59 -84 -182 -110 -215 -71 -88 -97 -116 -156 -168 -64 -56 -184
-136 -206 -137 -6 0 -24 -6 -40 -14 -64 -32 -199 -41 -296 -21 -169 36 -351
162 -499 347 l-46 56 -23 -71 c-50 -156 -148 -363 -233 -492 -77 -115 -196
-241 -296 -313 -50 -37 -170 -96 -214 -106 l-29 -7 7 -327 c3 -180 7 -390 9
-467 l2 -140 55 0 c29 0 81 7 114 16 58 15 165 57 175 69 3 3 23 17 45 31 92
61 188 179 248 306 l31 66 -2 283 -2 283 28 -9 c33 -11 152 -50 172 -58 8 -3
17 -6 20 -6 3 -1 25 -7 50 -13 199 -54 309 -68 515 -68 215 1 331 20 500 82
98 36 287 134 315 163 3 3 30 24 60 46 90 68 188 169 268 275 23 31 42 61 42
67 0 7 4 12 8 12 24 0 143 269 176 397 46 178 62 424 37 573 -6 36 -13 74 -15
85 -1 11 -5 27 -8 35 -3 8 -15 49 -28 90 -28 96 -85 215 -149 312 -77 118
-183 235 -296 326 -38 31 -72 60 -75 63 -13 15 -174 106 -246 140 -120 55
-270 102 -374 115 -19 2 -48 7 -65 11 -28 6 -272 13 -277 7z"/>
<path d="M3597 3319 c-83 -19 -161 -77 -211 -158 -32 -50 -40 -77 -47 -161 -4
-42 12 -113 37 -161 81 -162 279 -228 445 -150 41 20 119 82 119 96 0 4 9 18
19 31 33 41 54 126 49 196 -9 140 -118 276 -243 303 -49 11 -128 13 -168 4z"/>
</g>
</svg>
